<?xml version="1.0" standalone="no"?>
<!DOCTYPE svg PUBLIC "-//W3C//DTD SVG 20010904//EN"
 "http://www.w3.org/TR/2001/REC-SVG-20010904/DTD/svg10.dtd">
<svg version="1.0" xmlns="http://www.w3.org/2000/svg"
 width="632.000000pt" height="632.000000pt" viewBox="0 0 632.000000 632.000000"
 preserveAspectRatio="xMidYMid meet">
<metadata>
Created by potrace 1.14, written by Peter Selinger 2001-2017
</metadata>
<g transform="translate(0.000000,632.000000) scale(0.100000,-0.100000)"
fill="#000000" stroke="none">
<path d="M2890 6309 c0 -4 -18 -6 -40 -4 -23 2 -39 1 -36 -3 3 -4 -15 -7 -40
-6 -24 1 -44 -1 -44 -5 0 -4 -18 -6 -40 -5 -22 1 -40 -2 -40 -5 0 -4 -16 -8
-36 -9 -20 -2 -45 -7 -55 -13 -13 -6 -19 -6 -19 0 0 6 -7 8 -15 5 -8 -4 -12
-11 -8 -18 4 -6 -1 -5 -10 3 -10 7 -17 9 -17 3 0 -6 -11 -9 -25 -7 -14 1 -25
-1 -25 -5 0 -4 -6 -7 -12 -7 -17 -1 -55 -10 -95 -22 -17 -5 -34 -7 -37 -3 -3
3 -6 0 -6 -7 0 -7 -7 -11 -15 -8 -8 4 -17 2 -20 -4 -4 -5 -10 -7 -15 -4 -5 3
-11 1 -15 -5 -4 -6 -10 -8 -15 -5 -5 3 -11 1 -15 -5 -4 -6 -11 -8 -16 -5 -5 4
-9 1 -9 -5 0 -6 -5 -8 -10 -5 -6 4 -17 1 -25 -5 -8 -7 -15 -9 -15 -5 0 4 -6 2
-13 -4 -8 -6 -17 -8 -20 -4 -4 3 -7 1 -7 -5 0 -7 -3 -11 -7 -10 -17 4 -73 -14
-68 -22 3 -5 -4 -7 -15 -5 -11 2 -20 -1 -20 -6 0 -6 -4 -7 -10 -4 -5 3 -10 1
-10 -5 0 -6 -4 -9 -8 -6 -5 3 -27 -6 -50 -19 -24 -13 -40 -19 -37 -12 4 7 0 4
-8 -5 -8 -10 -17 -15 -20 -11 -4 3 -12 1 -19 -5 -7 -6 -61 -35 -120 -65 -59
-29 -105 -57 -101 -60 3 -4 -3 -7 -15 -7 -11 0 -28 -8 -38 -17 -10 -10 -20
-18 -23 -19 -14 -1 -71 -40 -71 -47 0 -5 -4 -5 -10 -2 -5 3 -10 1 -10 -6 0 -7
-3 -10 -6 -6 -5 5 -27 -10 -60 -41 -8 -7 -14 -10 -14 -5 0 4 -4 3 -8 -3 -4 -6
-34 -30 -67 -54 -33 -24 -68 -53 -77 -63 -10 -11 -18 -16 -18 -11 -1 5 -9 -1
-19 -13 -10 -12 -21 -19 -25 -16 -3 4 -6 -1 -6 -11 0 -9 -3 -15 -7 -13 -5 3
-26 -12 -48 -34 -22 -21 -43 -39 -47 -39 -5 0 -8 -7 -8 -15 0 -8 -4 -15 -10
-15 -17 0 -49 -33 -43 -44 3 -6 3 -8 -2 -4 -4 4 -24 -9 -43 -30 -20 -20 -40
-36 -45 -34 -4 1 -6 -1 -3 -6 2 -4 -11 -23 -30 -41 -19 -19 -34 -38 -34 -42 0
-5 -7 -9 -16 -9 -8 0 -13 -4 -9 -9 3 -5 -6 -18 -20 -29 -14 -11 -25 -23 -25
-27 0 -13 -37 -54 -44 -48 -3 3 -6 -1 -6 -10 0 -9 -5 -17 -12 -17 -6 0 -9 -3
-5 -6 3 -3 -3 -15 -14 -27 -32 -36 -43 -51 -74 -97 -16 -25 -36 -51 -43 -58
-7 -8 -9 -18 -6 -24 4 -6 2 -8 -4 -4 -6 3 -14 -3 -18 -16 -3 -12 -13 -28 -20
-36 -8 -7 -11 -18 -8 -24 4 -7 2 -8 -4 -4 -7 4 -12 3 -12 -2 0 -5 -11 -26 -25
-46 -13 -20 -22 -36 -20 -36 2 0 -7 -16 -20 -36 -14 -20 -22 -40 -19 -45 3 -5
-2 -12 -10 -15 -9 -3 -16 -14 -16 -25 0 -10 -8 -23 -18 -28 -9 -6 -13 -11 -8
-11 5 0 3 -7 -4 -15 -6 -8 -9 -19 -5 -25 3 -5 1 -10 -4 -10 -6 0 -11 -7 -11
-15 0 -8 -5 -15 -11 -15 -5 0 -8 -4 -4 -9 3 -5 1 -12 -5 -16 -6 -4 -8 -11 -5
-16 4 -5 1 -9 -4 -9 -6 0 -10 -3 -9 -7 1 -5 -3 -18 -10 -30 -7 -13 -9 -23 -5
-23 4 0 -2 -7 -13 -16 -10 -8 -13 -13 -7 -9 7 3 13 1 13 -4 0 -6 -5 -11 -11
-11 -6 0 -9 -7 -5 -15 3 -8 1 -15 -4 -15 -8 0 -31 -55 -36 -89 -2 -8 -9 -18
-16 -22 -10 -7 -10 -9 2 -9 10 0 11 -3 4 -8 -11 -7 -30 -69 -26 -84 1 -5 -2
-8 -7 -8 -8 0 -17 -34 -24 -85 -1 -11 -5 -22 -8 -25 -6 -5 -20 -68 -22 -97 0
-7 -4 -13 -8 -13 -4 0 -6 -9 -4 -20 2 -11 0 -20 -4 -20 -4 0 -7 -10 -6 -22 1
-13 -2 -28 -7 -34 -5 -7 -8 -16 -6 -20 1 -5 -2 -31 -7 -59 -4 -27 -7 -56 -6
-64 1 -7 -1 -11 -6 -8 -5 3 -8 -11 -7 -31 1 -19 -2 -46 -7 -59 -5 -15 -5 -23
2 -23 6 0 7 -5 2 -12 -13 -21 -15 -60 -18 -321 -1 -142 2 -250 7 -253 5 -3 4
-12 -3 -20 -6 -8 -7 -14 -3 -14 5 0 10 -15 11 -32 0 -18 4 -60 8 -93 10 -87
12 -100 14 -100 1 0 4 -16 7 -35 2 -19 7 -46 10 -60 8 -28 14 -64 16 -97 1
-13 5 -23 8 -23 3 0 6 -10 7 -22 1 -12 7 -34 14 -50 6 -16 9 -31 6 -35 -4 -3
-1 -15 5 -27 7 -11 13 -25 14 -31 1 -5 8 -30 15 -55 7 -25 12 -48 11 -52 -1
-5 2 -8 6 -8 5 0 9 -7 10 -15 1 -8 3 -22 4 -30 1 -8 5 -15 10 -15 4 0 8 -10 8
-23 0 -13 5 -28 10 -33 6 -6 12 -19 14 -30 4 -20 22 -64 68 -159 15 -33 28
-66 28 -73 0 -6 4 -12 10 -12 5 0 9 -3 8 -7 -2 -10 24 -66 35 -74 4 -3 9 -15
10 -27 0 -11 4 -19 7 -17 3 2 15 -16 26 -41 10 -24 22 -44 27 -44 4 0 12 -12
18 -27 11 -30 93 -155 121 -187 10 -11 18 -23 18 -28 0 -7 7 -16 53 -71 10
-12 27 -36 38 -54 11 -18 25 -33 30 -33 5 0 13 -8 16 -17 4 -10 19 -30 35 -45
15 -14 28 -28 28 -31 0 -3 18 -24 40 -47 22 -23 40 -46 40 -51 0 -6 4 -7 10
-4 5 3 10 1 10 -5 0 -6 5 -8 12 -4 6 4 8 3 5 -3 -4 -6 19 -34 51 -64 31 -29
56 -57 54 -62 -1 -5 2 -6 8 -2 5 3 10 2 10 -3 0 -5 12 -14 26 -20 14 -7 22
-17 19 -22 -3 -6 -2 -10 3 -10 5 0 18 -8 30 -18 54 -46 63 -52 72 -52 6 0 10
-7 10 -16 0 -8 4 -13 9 -10 5 3 11 -1 15 -9 3 -8 10 -15 16 -15 6 0 23 -11 38
-25 15 -14 31 -25 37 -25 6 0 17 -9 25 -20 8 -11 20 -20 27 -20 7 0 13 -5 13
-12 0 -6 3 -9 6 -5 3 3 14 -2 24 -11 10 -9 36 -26 57 -37 21 -11 46 -27 56
-36 9 -9 39 -26 67 -39 29 -13 47 -28 43 -34 -3 -6 -2 -8 2 -3 5 4 19 0 32 -8
13 -9 23 -13 23 -10 0 4 7 -1 16 -9 8 -9 20 -14 25 -11 5 4 9 1 9 -5 0 -6 5
-8 10 -5 6 3 10 2 10 -3 0 -4 16 -14 35 -22 19 -8 35 -18 35 -22 0 -5 3 -7 8
-4 4 2 37 -9 72 -26 36 -17 74 -33 85 -35 11 -2 24 -8 29 -13 6 -6 20 -10 33
-10 13 0 23 -5 23 -11 0 -5 5 -7 10 -4 6 3 10 2 10 -4 0 -6 7 -8 16 -4 9 3 19
1 23 -5 4 -7 19 -13 34 -14 15 -1 27 -6 27 -11 0 -5 6 -7 14 -4 8 3 16 1 18
-4 2 -5 14 -11 28 -13 52 -6 90 -19 90 -30 0 -6 5 -4 10 4 5 8 10 10 10 4 0
-6 6 -11 13 -11 11 -1 69 -11 92 -17 6 -2 18 -6 28 -11 10 -4 21 -5 24 -1 4 3
17 -1 29 -9 14 -9 25 -11 29 -5 4 7 13 7 26 0 10 -6 35 -11 54 -12 20 -1 38
-4 40 -7 2 -4 29 -6 59 -6 31 0 56 -3 56 -6 0 -23 725 -16 763 8 6 3 30 7 53
8 24 1 47 4 50 8 4 4 13 2 20 -4 10 -8 15 -8 19 2 3 9 24 15 52 17 26 1 51 6
57 11 6 5 19 7 29 6 9 -2 17 0 17 4 0 4 11 8 25 9 55 5 65 7 65 12 0 4 6 7 13
8 11 0 49 9 72 16 6 2 25 7 43 11 17 4 32 12 32 18 0 6 3 8 6 4 3 -3 49 10
102 29 54 19 102 36 107 38 6 2 30 12 55 23 25 12 74 34 110 50 36 17 68 29
71 29 3 -1 13 7 23 17 10 9 22 15 27 12 5 -4 9 -2 9 3 0 5 15 15 33 23 17 7
36 19 40 26 4 7 17 13 27 13 11 0 20 5 20 10 0 6 5 10 11 10 6 0 24 9 40 21
16 11 29 17 29 12 0 -4 5 0 11 10 5 9 17 17 24 17 8 0 15 5 15 11 0 5 4 8 9 5
5 -3 11 1 15 9 3 8 11 15 19 15 7 0 22 8 33 19 11 10 39 30 62 45 23 14 42 31
42 37 0 5 4 8 8 5 5 -3 15 3 24 12 8 9 28 26 43 37 16 11 36 28 44 38 9 9 21
17 29 17 7 0 10 5 7 10 -3 6 -2 10 2 10 5 0 37 26 71 58 34 32 62 56 62 53 0
-3 11 10 25 29 14 19 25 30 25 26 0 -4 12 7 27 24 14 18 47 54 72 81 75 79
101 109 94 109 -3 0 6 10 20 23 15 12 27 28 27 34 0 6 7 14 16 17 8 3 13 10
10 15 -3 5 1 12 10 15 8 3 13 10 10 15 -3 5 0 11 7 14 7 3 32 33 55 68 23 35
45 69 50 74 4 6 19 29 32 52 13 24 28 43 32 43 5 0 6 5 3 10 -3 5 -1 10 4 10
6 0 11 9 11 20 0 11 5 20 10 20 6 0 10 7 10 15 0 8 5 15 11 15 5 0 7 5 4 10
-3 6 -2 10 2 10 5 0 17 20 28 45 11 25 24 45 29 45 5 0 6 3 3 7 -4 3 0 15 10
25 9 10 13 18 9 18 -4 0 2 15 13 33 11 19 18 37 14 40 -3 4 -1 7 5 7 7 0 11 3
10 8 -1 4 6 21 15 39 9 18 17 39 17 48 0 8 4 15 10 15 5 0 9 3 9 8 -1 4 0 9 1
12 1 3 3 12 5 20 2 8 15 43 28 77 14 35 23 63 21 63 -2 0 2 13 11 30 8 16 15
32 15 35 0 7 2 16 20 75 7 25 14 47 15 50 7 24 19 87 17 93 -1 4 2 7 7 7 5 0
8 6 8 13 -2 37 17 116 27 110 7 -4 6 -1 -1 7 -9 9 -9 19 -2 32 6 11 8 26 5 34
-3 8 -2 14 3 14 5 0 8 16 6 35 -1 19 1 32 5 30 4 -3 7 8 7 23 0 15 3 54 8 87
10 76 12 550 2 670 -4 51 -13 92 -20 97 -9 6 -9 8 1 8 8 0 10 5 6 12 -5 7 -9
29 -11 48 -2 19 -7 47 -12 63 -7 20 -7 27 2 27 8 0 7 3 -2 9 -8 5 -11 16 -8
25 4 9 2 16 -4 16 -6 0 -7 5 -4 10 3 6 3 16 -2 23 -4 6 -9 23 -11 37 -2 14 -9
46 -17 72 -7 25 -11 49 -8 52 4 3 1 6 -5 6 -7 0 -11 3 -10 8 4 12 -25 122 -32
122 -4 0 -7 6 -8 13 -1 23 -11 56 -22 77 -6 11 -8 25 -5 30 3 6 2 10 -3 10 -5
0 -15 19 -22 43 -8 23 -20 52 -28 64 -8 13 -11 23 -7 23 3 0 -4 14 -16 32 -13
17 -18 29 -12 25 8 -5 8 0 0 18 -7 14 -16 25 -20 25 -5 0 -5 5 -2 10 3 6 1 10
-4 10 -6 0 -11 3 -10 8 2 15 -14 52 -22 52 -5 0 -8 3 -7 8 4 14 -13 52 -23 52
-6 0 -7 5 -4 10 3 6 1 10 -5 10 -6 0 -8 5 -5 10 3 6 1 10 -5 10 -6 0 -8 5 -5
10 3 6 1 10 -5 10 -6 0 -8 5 -5 10 3 6 2 10 -4 10 -6 0 -13 11 -17 25 -3 14
-10 25 -15 25 -5 0 -9 7 -9 15 0 8 -5 15 -11 15 -5 0 -8 4 -4 9 3 5 -5 17 -17
26 -13 8 -22 18 -20 20 5 11 1 24 -10 37 -7 7 -29 36 -47 63 -19 28 -40 53
-45 57 -6 4 -7 8 -3 8 8 0 -2 14 -40 54 -12 13 -19 27 -16 30 3 3 -2 8 -11 12
-9 3 -16 13 -16 21 0 8 -4 11 -10 8 -5 -3 -10 1 -10 9 0 8 -12 24 -26 35 -15
12 -24 21 -20 21 4 0 -5 11 -19 25 -14 14 -25 30 -25 35 0 6 -7 10 -17 10 -9
0 -13 3 -10 7 8 7 -240 253 -255 253 -5 0 -6 5 -3 10 3 6 -1 10 -9 10 -9 0
-16 5 -16 10 0 6 -7 10 -17 10 -9 0 -14 3 -10 6 3 3 -15 22 -41 42 -26 19 -48
39 -50 44 -2 4 -9 8 -14 8 -6 0 -18 7 -27 15 -35 33 -79 65 -90 65 -6 0 -11 5
-11 10 0 6 -6 10 -13 10 -7 0 -19 9 -26 19 -8 11 -20 17 -26 15 -7 -3 -15 2
-18 10 -4 9 -13 16 -22 16 -8 0 -15 5 -15 12 0 6 -3 9 -6 5 -4 -3 -12 -1 -20
6 -33 30 -42 35 -48 30 -3 -4 -6 -1 -6 6 0 8 -7 11 -15 7 -8 -3 -15 -2 -15 3
0 4 -21 19 -47 32 -26 13 -54 30 -61 37 -8 7 -17 10 -22 7 -5 -3 -10 -2 -12 2
-4 11 -129 69 -140 66 -4 -2 -8 2 -8 8 0 5 -4 8 -9 5 -5 -4 -11 -2 -13 3 -1 5
-12 11 -23 13 -11 1 -22 6 -25 10 -3 3 -14 8 -25 10 -11 1 -23 7 -26 11 -3 4
-16 9 -27 10 -12 1 -22 4 -22 7 0 3 -21 11 -47 18 -27 8 -56 18 -65 23 -10 5
-25 9 -33 9 -8 0 -15 5 -15 11 0 5 -5 7 -10 4 -6 -4 -18 -1 -27 7 -14 11 -16
11 -9 0 7 -12 4 -12 -15 -1 -13 7 -28 14 -34 15 -5 0 -12 2 -15 3 -3 2 -12 4
-20 6 -8 2 -26 7 -40 10 -14 4 -33 7 -42 7 -10 -1 -18 3 -18 7 0 4 -11 8 -25
9 -53 4 -60 5 -70 12 -5 3 -30 8 -55 9 -25 2 -49 6 -55 10 -5 4 -20 6 -32 5
-13 0 -23 2 -23 6 0 5 -9 6 -20 3 -11 -3 -28 1 -37 8 -10 8 -14 9 -10 2 5 -8
-1 -11 -20 -8 -16 2 -28 4 -28 5 0 7 -98 11 -332 14 -150 2 -273 0 -273 -5z"/>
</g>
</svg>
